# xmcd
#
# Track frame offsets:
#   150
#   13716
#   26876
#   41206
#   61890
#   75393
#   89288
#   104049
#   121045
#   139469
#   156549
#   168848
#   188270
#   209843
#   227051
#   241534
#   253553
#   265007
#   277035
#   294467
#   306404
#
# Disc length: 4302 seconds
#
# Revision: 0
# Processed by: cddbd v1.5.2PL0 Copyright (c) Steve Scherf et al.
# Submitted via: uFREEDB ActiveX Control 1.5
#
DISCID=2a10cc15
DTITLE=Coletaneas - nova geracao da musica sertaneja
DYEAR=1900
DGENRE=Country
TTITLE0=o leaozinho
TTITLE1=bolero
TTITLE2=coracao redomao
TTITLE3=laco aberto
TTITLE4=30 dias de paixao
TTITLE5=espirito cigano
TTITLE6=ainda ontem chorei de saudade
TTITLE7=volta pra casa
TTITLE8=quando se ama em goias
TTITLE9=o rei da cana
TTITLE10=garca pantaneira
TTITLE11=seu perfume
TTITLE12=sonho de amor
TTITLE13=pense em mim
TTITLE14=deixa eu te amar
TTITLE15=familia encrencada
TTITLE16=30 anos de viola
TTITLE17=vou pra barretos
TTITLE18=recomecar
TTITLE19=eu so quero um xodo
TTITLE20=roupas de lua de mel
EXTD=
EXTT0=
EXTT1=
EXTT2=
EXTT3=
EXTT4=
EXTT5=
EXTT6=
EXTT7=
EXTT8=
EXTT9=
EXTT10=
EXTT11=
EXTT12=
EXTT13=
EXTT14=
EXTT15=
EXTT16=
EXTT17=
EXTT18=
EXTT19=
EXTT20=
PLAYORDER=
